<svg width="17" height="18" viewBox="0 0 17 18" fill="none" xmlns="http://www.w3.org/2000/svg">
<path d="M14.7902 5.99916L5.13021 0.459158C4.6075 0.157318 4.01421 -0.000803849 3.41061 0.000854045C2.807 0.00251194 2.21459 0.16389 1.69354 0.468597C1.17249 0.773305 0.741368 1.21049 0.443959 1.73574C0.14655 2.26099 -0.00654797 2.85559 0.000214711 3.45916V14.5792C0.000214711 15.4862 0.360535 16.3561 1.00191 16.9975C1.64328 17.6388 2.51317 17.9992 3.42021 17.9992C4.02065 17.9981 4.6103 17.8395 5.13021 17.5392L14.7902 11.9992C15.3093 11.6987 15.7402 11.2671 16.0398 10.7476C16.3394 10.2281 16.4971 9.63888 16.4971 9.03916C16.4971 8.43944 16.3394 7.85026 16.0398 7.33072C15.7402 6.81119 15.3093 6.37957 14.7902 6.07916V5.99916ZM13.7902 10.1892L4.13021 15.8092C3.9137 15.9319 3.66908 15.9964 3.42021 15.9964C3.17135 15.9964 2.92673 15.9319 2.71021 15.8092C2.49431 15.6845 2.31503 15.5052 2.1904 15.2893C2.06576 15.0734 2.00017 14.8285 2.00021 14.5792V3.41916C2.00017 3.16985 2.06576 2.92493 2.1904 2.70902C2.31503 2.49311 2.49431 2.31381 2.71021 2.18916C2.92762 2.06831 3.17151 2.00305 3.42021 1.99916C3.66875 2.00426 3.91235 2.06945 4.13021 2.18916L13.7902 7.76916C14.0062 7.89376 14.1856 8.07303 14.3103 8.28895C14.435 8.50486 14.5006 8.74981 14.5006 8.99916C14.5006 9.2485 14.435 9.49345 14.3103 9.70937C14.1856 9.92529 14.0062 10.1046 13.7902 10.2292V10.1892Z" fill="#002333"/>
</svg>
