<svg width="21" height="20" viewBox="0 0 21 20" fill="none" xmlns="http://www.w3.org/2000/svg">
<path d="M10.3334 0C8.35557 0 6.42217 0.58649 4.77768 1.6853C3.13318 2.78412 1.85146 4.3459 1.09458 6.17317C0.337707 8.00043 0.139674 10.0111 0.525526 11.9509C0.911378 13.8907 1.86379 15.6725 3.26231 17.0711C4.66084 18.4696 6.44267 19.422 8.38248 19.8079C10.3223 20.1937 12.333 19.9957 14.1602 19.2388C15.9875 18.4819 17.5493 17.2002 18.6481 15.5557C19.7469 13.9112 20.3334 11.9778 20.3334 10C20.3334 8.68678 20.0747 7.38642 19.5722 6.17317C19.0696 4.95991 18.333 3.85752 17.4044 2.92893C16.4759 2.00035 15.3735 1.26375 14.1602 0.761205C12.947 0.258658 11.6466 0 10.3334 0ZM11.3334 17.93V17C11.3334 16.7348 11.228 16.4804 11.0405 16.2929C10.8529 16.1054 10.5986 16 10.3334 16C10.0682 16 9.81381 16.1054 9.62627 16.2929C9.43874 16.4804 9.33338 16.7348 9.33338 17V17.93C7.57336 17.7068 5.93745 16.9049 4.68296 15.6504C3.42847 14.3959 2.62657 12.76 2.40338 11H3.33338C3.5986 11 3.85295 10.8946 4.04049 10.7071C4.22802 10.5196 4.33338 10.2652 4.33338 10C4.33338 9.73478 4.22802 9.48043 4.04049 9.29289C3.85295 9.10536 3.5986 9 3.33338 9H2.40338C2.62657 7.23998 3.42847 5.60408 4.68296 4.34959C5.93745 3.0951 7.57336 2.29319 9.33338 2.07V3C9.33338 3.26522 9.43874 3.51957 9.62627 3.70711C9.81381 3.89464 10.0682 4 10.3334 4C10.5986 4 10.8529 3.89464 11.0405 3.70711C11.228 3.51957 11.3334 3.26522 11.3334 3V2.07C13.0934 2.29319 14.7293 3.0951 15.9838 4.34959C17.2383 5.60408 18.0402 7.23998 18.2634 9H17.3334C17.0682 9 16.8138 9.10536 16.6263 9.29289C16.4387 9.48043 16.3334 9.73478 16.3334 10C16.3334 10.2652 16.4387 10.5196 16.6263 10.7071C16.8138 10.8946 17.0682 11 17.3334 11H18.2634C18.0402 12.76 17.2383 14.3959 15.9838 15.6504C14.7293 16.9049 13.0934 17.7068 11.3334 17.93ZM13.4734 5.55L8.47338 7.67C8.24029 7.77099 8.05437 7.95691 7.95338 8.19L5.83338 13.19C5.75462 13.3734 5.73253 13.5761 5.76996 13.7722C5.80738 13.9682 5.90261 14.1485 6.04338 14.29C6.22801 14.4784 6.47961 14.5862 6.74338 14.59C6.88175 14.5901 7.0184 14.5594 7.14338 14.5L12.1434 12.38C12.3765 12.279 12.5624 12.0931 12.6634 11.86L14.7834 6.86C14.8607 6.67676 14.8815 6.47463 14.8434 6.27946C14.8052 6.08429 14.7097 5.90493 14.5691 5.7643C14.4285 5.62368 14.2491 5.52818 14.0539 5.49001C13.8587 5.45183 13.6566 5.47272 13.4734 5.55ZM10.9834 10.65L8.70338 11.65L9.70338 9.37L11.9834 8.37L10.9834 10.65Z" fill="#002333"/>
</svg>
