<svg width="22" height="20" viewBox="0 0 22 20" fill="none" xmlns="http://www.w3.org/2000/svg">
<path d="M20.97 16.8416L19.97 12.9816L16.82 1.3916C16.7519 1.13594 16.5853 0.917672 16.3567 0.784598C16.128 0.651524 15.8559 0.614487 15.6 0.681598L11.73 1.6816C11.6376 1.57924 11.5251 1.49709 11.3995 1.4403C11.2739 1.38351 11.1379 1.35331 11 1.3516H1C0.734784 1.3516 0.48043 1.45696 0.292893 1.64449C0.105357 1.83203 0 2.08638 0 2.3516V18.3516C0 18.6168 0.105357 18.8712 0.292893 19.0587C0.48043 19.2462 0.734784 19.3516 1 19.3516H11C11.2652 19.3516 11.5196 19.2462 11.7071 19.0587C11.8946 18.8712 12 18.6168 12 18.3516V10.3516L14.2 18.5716C14.2586 18.7898 14.3893 18.9817 14.5709 19.116C14.7525 19.2504 14.9742 19.3193 15.2 19.3116C15.2864 19.3214 15.3736 19.3214 15.46 19.3116L20.29 18.0216C20.4177 17.9875 20.5374 17.9283 20.6421 17.8477C20.7468 17.767 20.8344 17.6664 20.9 17.5516C21.0055 17.3304 21.0302 17.0792 20.97 16.8416ZM4.97 17.3916H1.97V15.3916H4.97V17.3916ZM4.97 13.3916H1.97V7.3916H4.97V13.3916ZM4.97 5.3916H1.97V3.3916H4.97V5.3916ZM9.97 17.3916H6.97V15.3916H9.97V17.3916ZM9.97 13.3916H6.97V7.3916H9.97V13.3916ZM9.97 5.3916H6.97V3.3916H9.97V5.3916ZM12.22 3.6516L15.12 2.8716L15.64 4.8016L12.74 5.5816L12.22 3.6516ZM14.81 13.3116L13.26 7.5116L16.16 6.7316L17.71 12.5316L14.81 13.3116ZM15.81 17.1716L15.29 15.2416L18.19 14.4616L18.71 16.3916L15.81 17.1716Z" fill="black"/>
</svg>
