<svg width="21" height="20" viewBox="0 0 21 20" fill="none" xmlns="http://www.w3.org/2000/svg">
<path d="M10.6666 0.0103455C8.72703 0.0140305 6.83044 0.581656 5.20778 1.64408C3.58513 2.70651 2.30645 4.21789 1.52749 5.99411C0.748539 7.77034 0.502929 9.73476 0.820579 11.6481C1.13823 13.5614 2.00543 15.3411 3.31655 16.7703C4.25298 17.7854 5.38949 18.5955 6.65449 19.1496C7.91949 19.7036 9.28553 19.9897 10.6666 19.9897C12.0476 19.9897 13.4136 19.7036 14.6786 19.1496C15.9436 18.5955 17.0801 17.7854 18.0166 16.7703C19.3277 15.3411 20.1949 13.5614 20.5125 11.6481C20.8302 9.73476 20.5846 7.77034 19.8056 5.99411C19.0267 4.21789 17.748 2.70651 16.1253 1.64408C14.5027 0.581656 12.6061 0.0140305 10.6666 0.0103455ZM10.6666 18.0103C8.59502 18.0072 6.60547 17.2006 5.11655 15.7603C5.5686 14.6599 6.33759 13.7186 7.32581 13.0562C8.31403 12.3938 9.47686 12.0401 10.6666 12.0401C11.8562 12.0401 13.0191 12.3938 14.0073 13.0562C14.9955 13.7186 15.7645 14.6599 16.2166 15.7603C14.7276 17.2006 12.7381 18.0072 10.6666 18.0103ZM8.66655 8.01035C8.66655 7.61478 8.78385 7.2281 9.00361 6.89921C9.22338 6.57031 9.53573 6.31396 9.90119 6.16259C10.2666 6.01121 10.6688 5.9716 11.0567 6.04877C11.4447 6.12595 11.8011 6.31643 12.0808 6.59613C12.3605 6.87584 12.551 7.2322 12.6281 7.62016C12.7053 8.00813 12.6657 8.41026 12.5143 8.77571C12.3629 9.14116 12.1066 9.45352 11.7777 9.67328C11.4488 9.89305 11.0621 10.0103 10.6666 10.0103C10.1361 10.0103 9.62741 9.79963 9.25234 9.42456C8.87727 9.04949 8.66655 8.54078 8.66655 8.01035ZM17.5766 14.0103C16.6831 12.4821 15.308 11.2934 13.6666 10.6303C14.1757 10.053 14.5075 9.341 14.622 8.57978C14.7366 7.81856 14.629 7.04046 14.3123 6.33884C13.9956 5.63723 13.4831 5.0419 12.8365 4.62431C12.1898 4.20672 11.4363 3.98459 10.6666 3.98459C9.89676 3.98459 9.14332 4.20672 8.49665 4.62431C7.84997 5.0419 7.33752 5.63723 7.0208 6.33884C6.70408 7.04046 6.59654 7.81856 6.71108 8.57978C6.82562 9.341 7.15738 10.053 7.66655 10.6303C6.02515 11.2934 4.65002 12.4821 3.75655 14.0103C3.0445 12.7974 2.66827 11.4168 2.66655 10.0103C2.66655 7.88861 3.50941 5.85378 5.0097 4.35349C6.50999 2.8532 8.54482 2.01035 10.6666 2.01035C12.7883 2.01035 14.8231 2.8532 16.3234 4.35349C17.8237 5.85378 18.6666 7.88861 18.6666 10.0103C18.6648 11.4168 18.2886 12.7974 17.5766 14.0103Z" fill="#002333"/>
</svg>
